<?xml version="1.0" encoding="utf-8"?>
<!-- Generator: Adobe Illustrator 18.1.1, SVG Export Plug-In . SVG Version: 6.00 Build 0)  -->
<!DOCTYPE svg PUBLIC "-//W3C//DTD SVG 1.1//EN" "http://www.w3.org/Graphics/SVG/1.1/DTD/svg11.dtd">
<svg version="1.1" id="Layer_1" xmlns="http://www.w3.org/2000/svg" xmlns:xlink="http://www.w3.org/1999/xlink" x="0px" y="0px"
	 viewBox="0 0 1600 900" enable-background="new 0 0 1600 900" xml:space="preserve">
<g id="white_Knockout_Layer">
</g>
<g id="Beeple_Art">
	<g>
		<g>
			<g>
				<path fill="#FFFFFF" d="M378.2,897.3V790.1c0-35.6,0-58.8,38.1-72.1l244.3-105.5l0.3-1.6c0-0.5,0.3-0.8,0.3-1.3l36.4-56.1
					l-1.9-1.6c-37.8-29.7-59.9-77.5-64-138.5v-1.9l-1.6-0.5c-18.4-6.7-28.3-20.2-29.4-39.4c-0.8-17.5-7-69.9-7-70.5v-0.5
					c0-2.2,0.5-4.6,1.3-7l0.3-1.3l-0.8-1.1c-3.8-5.7-6.2-10.3-8.4-14.3l-0.3-0.3v-0.3c-7.6-35.6-8.4-65.3-3-94.2
					c6.5-34.8,22.7-58.8,49.7-73.4c2.7-1.3,4.3-2.7,5.1-5.1c11.9-34.3,38.1-54,80.2-59.7c4.9-0.5,9.7-2.2,15.4-4.6
					c34.6-15.1,65.6-22.4,95-22.4c21.6,0,42.9,4,63.4,12.1c38.9,15.4,64.8,38.3,79.1,70.2c0.8,1.9,1.9,3,3.2,3.8
					c45.4,23.5,53.2,67.2,55.1,102.6c1.3,25.4-1.1,52.4-7.6,83.1l-0.3,1.3l-6.2,3.2v1.6v0.8c-0.3,2.7-4,60.7-8.6,77.7
					c-5.7,21.3-11.6,37.8-33.2,39.4L971,413l-0.3,2.2c-5.1,61.3-29.2,109.1-69.6,138.5l-3.2,2.2l3.2,2.2c0.3,0.3,0.5,0.3,0.5,0.5
					l36.7,49.1c0.3,0.5,0.5,1.1,0.5,1.6v2.4l243.5,105.8c17.3,5.9,27.5,14.3,32.9,26.5c1.1,2.4,2.2,5.1,3,7.8
					c3,10.3,3.2,22.1,3.2,35.6v105h-0.8v4.6H378.2V897.3z"/>
			</g>
		</g>
		<g>
			<g>
				<path fill="#E8E3E3" d="M1010.2,296.1c0-7.8-7.6-12.7-19.7-12.7c-0.5,0-0.8-0.3-1.1-0.3c-0.3-0.3-0.3-0.5-0.3-1.1
					c0-0.5,0.5-1.1,0.5-1.1l2.2-1.3l-8.4-48.1c0-0.5-13-64-46.2-102.6l-3.5-4l-28.9,44.3c-23.8,25.9-94.5-73.4-137.1-57.8
					c-33.2,12.1-49.4,17.5-79.6,17.5c-10,0-19.4,20.2-28.3,18.9l-27,14.8l13.8,70.2h-1.3c-1.3,0-2.7,0-4,0l-4.3-0.8v4.3
					c0,6.5-0.3,15.4-0.3,23.2c-0.3,11.3-0.5,22.9-0.3,30v1.9H636l0.3,5.4c0.8,29.4-6.2,55.6-6.2,56.1c0,0.8-0.5,1.3-1.3,1.3
					c-0.8,0-1.3-0.5-1.3-1.3c0-2.2,7-29.2,6.2-58.6v-2.4l-2.4-1.1c-1.3-0.5-3.2-1.3-5.1-2.2l-18.4-4.9l-1.3,0.5
					c-1.1,0.5-1.9,0.8-2.7,1.6c-4.3,3.2-7.3,9.4-7.6,15.1v0.3v0.3c0.5,5.4,6.2,53.7,7,70.5c0.8,18.6,10.8,30.8,29.4,36.7
					c0.5,0.3,0.8,0.5,0.8,0.8l0.5,0.8c0.3,0.3,0.3,0.5,0.3,0.8c3.2,57.8,21.9,102,55.1,132.3c35.6,32.4,78.6,39.1,108.2,39.1h1.6
					c52.9-0.5,95-19.2,124.7-55.3c24.3-29.7,39.4-70.7,42.4-115.8c0-0.3,0.3-0.8,0.5-1.1c0.3-0.3,0.8-0.3,1.1-0.3l0.8,0.3h0.5
					c19.4-0.3,25.9-11.9,32.4-36.7c4.3-16.2,8.1-70.7,8.4-76.7L1010.2,296.1L1010.2,296.1z"/>
			</g>
			<g>
				<path fill="#E8E3E3" d="M896.2,555.8l-4.9,3c-26.5,16.7-58.3,25.6-92.3,25.9h-1.3c-34.6,0-66.7-9.2-92.9-26.7l-4.9-3.2l-1.3,5.7
					c-2.7,12.7-10.3,57.2,9.7,90.7c11.6,19.4,30.8,32.4,57,38.1c0.8,0.3,1.6,0.5,2.4,0.8l1.1,0.5h1.1c0.3,0,0.8,0,1.1,0.5l28.3,41.6
					l27.8-43.7c0-0.3,0.3-0.3,0.5-0.5l1.1-0.5l0.5-1.1c0.5-1.3,1.9-2.2,4-2.7c27.3-6.2,47-19.2,58.3-38.9c20.8-36.2,7-82.1,6.5-84
					L896.2,555.8z"/>
			</g>
		</g>
		<g opacity="0.41">
			<path fill="#0B4361" d="M830.4,514.5c-7.3-4-17.8-6.5-28.9-6.5c-9.2,0-18.9,2.2-25.9,5.4l-4-8.1c8.4-4,19.4-6.5,30-6.5
				c12.7,0,25.1,2.7,33.5,7.8L830.4,514.5z"/>
		</g>
		<g opacity="0.28" enable-background="new    ">
			<g>
				<defs>
					<path id="SVGID_1_" d="M1224.5,895.4V791.8c0-35.4,0-61-40-74.8L942.7,612v-0.5c0-1.3-0.3-2.4-1.1-3.5l-36.7-49.1l0,0
						c-1.6-2.2-4.6-2.7-7-1.6c-2.4,1.3-3.5,4-2.7,6.5c0,0,0.3,0.8,0.5,1.9c2.4,8.9,11.1,48.3-6.5,78.8c-10.8,18.6-29.4,31-55.6,36.7
						c-4,0.8-5.9,3-6.7,4.9c-0.8,0.5-1.3,1.1-1.6,1.6l-24.6,38.6l-24.8-36.4c-1.1-1.6-2.7-2.4-4.6-2.4c-1.1-0.5-2.2-1.1-3.5-1.3
						c-26.2-5.9-44.8-18.1-55.6-36.7c-20-34.8-23.5-81.8-13.8-82.3c0.5,0,2.2-1.1,2.2-1.9c0-1.9,4.6-2.2,3-3c-1.3-0.5-2.7-0.8-4-0.5
						c-1.1,0.3-2.2,0.8-3,1.9l-36.7,45.4c-0.8,0.8-1.1,1.9-1.1,3L416,717c-40,13.8-40,39.4-40,74.8v103.7H1224.5z"/>
				</defs>
				<clipPath id="SVGID_2_">
					<use xlink:href="#SVGID_1_"  overflow="visible"/>
				</clipPath>
				<g clip-path="url(#SVGID_2_)">
					<g>
						<rect x="368.8" y="545.6" fill="#F89728" width="47.2" height="364.4"/>
					</g>
					<g>
						<rect x="452.4" y="545.6" fill="#F89728" width="47.2" height="364.4"/>
					</g>
					<g>
						<rect x="535.9" y="545.6" fill="#F89728" width="47.2" height="364.4"/>
					</g>
					<g>
						<rect x="619.3" y="545.6" fill="#F89728" width="47.2" height="364.4"/>
					</g>
					<g>
						<rect x="703" y="545.6" fill="#F89728" width="47.2" height="364.4"/>
					</g>
					<g>
						<rect x="786.6" y="545.6" fill="#F89728" width="47.2" height="364.4"/>
					</g>
					<g>
						<rect x="870.1" y="545.6" fill="#F89728" width="47.2" height="364.4"/>
					</g>
					<g>
						<rect x="953.5" y="545.6" fill="#F89728" width="47.2" height="364.4"/>
					</g>
					<g>
						<rect x="1037.1" y="545.6" fill="#F89728" width="47.2" height="364.4"/>
					</g>
					<g>
						<rect x="1120.6" y="545.6" fill="#F89728" width="47.2" height="364.4"/>
					</g>
					<g>
						<rect x="1204.2" y="545.6" fill="#F89728" width="47.2" height="364.4"/>
					</g>
				</g>
			</g>
			<g>
				<defs>
					<path id="SVGID_3_" d="M1224.5,895.4V791.8c0-35.4,0-61-40-74.8L942.7,612v-0.5c0-1.3-0.3-2.4-1.1-3.5l-36.7-49.1l0,0
						c-1.6-2.2-4.6-2.7-7-1.6c-2.4,1.3-3.5,4-2.7,6.5c0,0,0.3,0.8,0.5,1.9c2.4,8.9,11.1,48.3-6.5,78.8c-10.8,18.6-29.4,31-55.6,36.7
						c-4,0.8-5.9,3-6.7,4.9c-0.8,0.5-1.3,1.1-1.6,1.6l-24.6,38.6l-24.8-36.4c-1.1-1.6-2.7-2.4-4.6-2.4c-1.1-0.5-2.2-1.1-3.5-1.3
						c-26.2-5.9-44.8-18.1-55.6-36.7c-20-34.8-23.5-81.8-13.8-82.3c0.5,0,2.2-1.1,2.2-1.9c0-1.9,4.6-2.2,3-3c-1.3-0.5-2.7-0.8-4-0.5
						c-1.1,0.3-2.2,0.8-3,1.9l-36.7,45.4c-0.8,0.8-1.1,1.9-1.1,3L416,717c-40,13.8-40,39.4-40,74.8v103.7H1224.5z"/>
				</defs>
				<clipPath id="SVGID_4_">
					<use xlink:href="#SVGID_3_"  overflow="visible"/>
				</clipPath>
				<g clip-path="url(#SVGID_4_)">
					<g>
						<rect x="370.1" y="537.2" fill="#8DC63F" width="881.4" height="47.2"/>
					</g>
					<g>
						<rect x="370.1" y="620.6" fill="#8DC63F" width="881.4" height="47.2"/>
					</g>
					<g>
						<rect x="370.1" y="704.3" fill="#8DC63F" width="881.4" height="47.2"/>
					</g>
					<g>
						<rect x="370.1" y="787.7" fill="#8DC63F" width="881.4" height="47.2"/>
					</g>
					<g>
						<rect x="370.1" y="871.4" fill="#8DC63F" width="881.4" height="47.2"/>
					</g>
				</g>
			</g>
		</g>
		<g opacity="0.19">
			<polygon fill="#0B4361" points="1107.9,789.6 1108.7,896.5 1149.4,896.5 			"/>
		</g>
		<g opacity="0.19">
			<polygon fill="#0B4361" points="489.7,896.5 530.5,896.5 491,789.6 			"/>
		</g>
		<g>
			<g>
				<path fill="#0B4361" d="M1223.7,900H375.5V790.1c0-35.4,0-61,40-74.8l246.2-106.6l4.3,10L419.2,725.3
					c-32.9,11.6-32.9,30.5-32.9,64.8v99.1h826.6v-99.1c0-34.3,0-53.2-32.7-64.5l-0.3-0.3L935.6,619.3l4.3-10l244,106.1
					c40,13.8,40,39.4,40,74.8V900H1223.7z"/>
			</g>
			<g>
				<path fill="none" stroke="#0B4361" stroke-width="4.094" stroke-linecap="round" stroke-miterlimit="10" d="M672.2,790.1"/>
			</g>
			<g>
				<path fill="none" stroke="#0B4361" stroke-width="4.094" stroke-linecap="round" stroke-miterlimit="10" d="M927,755.3"/>
			</g>
			<g>
				<rect x="483.2" y="795.8" fill="#0B4361" width="11.1" height="100.7"/>
			</g>
			<g>
				<path fill="#0B4361" d="M488.6,832.2c-3,0-5.4-2.4-5.4-5.4V792c0-3,2.4-5.4,5.4-5.4s5.4,2.4,5.4,5.4v34.8
					C494.3,829.8,491.9,832.2,488.6,832.2z"/>
			</g>
			<g>
				<rect x="1102.2" y="795.8" fill="#0B4361" width="11.1" height="100.7"/>
			</g>
			<g>
				<path fill="#0B4361" d="M1107.6,832.2c-3,0-5.4-2.4-5.4-5.4V792c0-3,2.4-5.4,5.4-5.4c3,0,5.4,2.4,5.4,5.4v34.8
					C1113.3,829.8,1110.8,832.2,1107.6,832.2z"/>
			</g>
		</g>
		<g>
			<path fill="#0B4361" d="M633.3,414.9c-0.5,0-1.1,0-1.6-0.3c-21.3-6.7-32.9-21.3-34-42.9c-0.8-17.3-7-69.6-7-70.2V301
				c0-8.1,4-16.2,10.3-20.8c4.9-3.5,10.3-4.9,15.7-3.2c5.7,1.6,18.6,7.6,20.2,8.1c2.7,1.3,4,4.3,2.7,7s-4.3,3.8-7,2.7
				c-3.8-1.6-14.6-6.5-18.6-7.6c-2.2-0.5-4,0-6.2,1.3c-3.5,2.4-5.7,7.3-5.9,11.9c0.5,5.1,6.2,53.4,7,70.7c0.8,17,9.4,27.8,26.5,32.9
				c3,0.8,4.3,4,3.5,6.7C637.6,413.3,635.5,414.9,633.3,414.9z"/>
		</g>
		<g>
			<path fill="#0B4361" d="M798.5,588.5c-77.7,0-162.8-46.7-170.1-177.6c-0.3-3,2.2-5.4,5.1-5.7c3,0,5.4,2.2,5.7,5.1
				c3.2,56.4,21.3,100.1,53.7,129.6c34.6,31.3,76.1,38.1,105.5,38.1c0.5,0,1.1,0,1.3,0c112.3-0.8,157.9-87.2,163-167.6
				c0-1.6,0.8-3,2.2-4c1.3-0.8,3-1.3,4.6-0.8h0.3c15.4-0.3,21.6-7.6,28.6-33.7c4.3-15.9,8.1-72.3,8.4-75.9c0-2.7-1.3-4.6-4-6.2
				c-3-1.6-7-2.4-11.9-2.4c-3,0-5.4-2.4-5.4-5.4s2.4-5.4,5.4-5.4l0,0c4.6,0,11.3,0.8,17.3,4c6.2,3.5,9.4,8.9,9.4,15.7v0.3
				c-0.3,2.4-4,60.7-8.6,78.3c-5.7,21.6-12.4,39.7-35.6,41.6c-10.5,126.1-96.1,172-173.6,172.5C799.6,588.5,799.1,588.5,798.5,588.5
				z"/>
		</g>
		<g>
			<path fill="#0B4361" d="M934.3,767.5c-0.8,0-1.9-0.3-2.7-0.8c-0.3-0.3-26.7-15.4-52.6-31.9c-50.7-32.7-54.3-41.8-53.2-47.8
				c0.3-1.6,1.3-5.7,7.3-7c26.2-5.9,44.8-18.1,55.6-36.7c20.2-34.8,6.2-80.4,5.9-81c-0.8-2.4,0.3-5.1,2.7-6.5
				c2.4-1.1,5.1-0.5,6.7,1.6l36.7,49.1c0.8,1.1,1.1,2.2,1.1,3.2l-2.4,152.2c0,1.9-1.1,3.8-2.7,4.6
				C935.9,767.2,935.1,767.5,934.3,767.5z M837.4,690.3c7.8,10.5,50.5,38.9,91.5,62.6l2.2-141.2l-21.6-28.9
				c1.9,18.1,1.3,43.5-11.6,65.9C886,669.5,865.5,683.5,837.4,690.3z"/>
		</g>
		<g>
			<path fill="#0B4361" d="M800.1,740.5c-1.9,0-3.5-0.8-4.6-2.4l-29.4-43.2c-1.6-2.4-1.1-5.9,1.3-7.6s5.9-1.1,7.6,1.3l24.8,36.4
				l24.6-38.6c1.6-2.4,4.9-3.2,7.6-1.6c2.4,1.6,3.2,4.9,1.6,7.6L804.5,738C803.6,739.7,802,740.5,800.1,740.5L800.1,740.5z"/>
		</g>
		<g>
			<path fill="#0B4361" d="M665.7,772.6c-0.8,0-1.9-0.3-2.7-0.8c-1.6-1.1-2.7-2.7-2.7-4.6l-2.4-156c0-1.1,0.3-2.2,0.8-3l35.9-55.1
				c1.3-2.2,4.3-3,6.7-1.9c2.4,1.1,3.8,3.8,3,6.5c-0.3,0.5-14.3,53.4,8.4,91.2c11.1,18.6,29.4,30.8,54.3,36.2c5.9,1.3,7.3,5.4,7.3,7
				c0.8,5.9-2.4,15.1-53.2,47.8c-25.9,16.7-52.4,31.9-52.6,31.9C667.6,772.3,666.5,772.6,665.7,772.6z M668.7,612.8l2.2,145.2
				c41-23.8,84-52.1,91.5-62.6c-27-6.5-46.7-20.2-59.1-40.8c-14.6-24.3-15.7-53.2-14-73.7L668.7,612.8z"/>
		</g>
		<g>
			<path fill="#0B4361" d="M1054.2,860.9h-145c-3,0-5.4-2.4-5.4-5.4s2.4-5.4,5.4-5.4h145c3,0,5.4,2.4,5.4,5.4
				S1057.4,860.9,1054.2,860.9z"/>
		</g>
		<g>
			<path fill="#0B4361" d="M832.3,400.6c0,0-0.5,0.8-1.9,2.2s-3.2,3.2-5.9,4.9c-2.7,1.9-5.9,3.2-10,4.6c-1.9,0.5-4,1.1-6.2,1.3
				c-1.1,0-2.2,0.3-3.2,0.3h-0.8h-0.5h-0.3H802c-2.2,0-4.3-0.3-6.5-0.8c-2.2-0.3-4-1.1-5.9-1.6c-1.9-0.8-3.8-1.3-5.1-2.4
				c-1.6-0.8-3-1.9-4.3-2.7s-2.4-1.9-3.2-2.7c-0.8-0.8-1.6-1.6-2.2-2.4c-1.1-1.3-1.6-2.4-1.6-2.4l3.8-4c0,0,0.8,0.3,2.2,1.1
				c0.8,0.3,1.6,0.8,2.4,1.1c1.1,0.5,2.2,0.8,3.2,1.3c2.4,0.8,5.1,1.6,8.4,2.2c1.6,0.3,3.2,0.5,4.9,0.8c0.8,0,1.6,0.3,2.4,0.3h2.4
				h2.4c0.8,0,1.6,0,2.4,0c1.6,0,3.2-0.3,4.6-0.5c3-0.5,5.9-1.1,8.4-1.9s4.6-1.3,5.9-1.9s2.4-0.8,2.4-0.8L832.3,400.6z"/>
		</g>
		<g opacity="0.41">
			<path fill="#0B4361" d="M838.2,386.6c-5.9-5.4-11.6-13.5-15.1-21.9c-4.3-10.3-5.9-20.8-4.9-29.4l7.8,1.1
				c-0.8,7,0.8,16.2,4.3,25.4c3,7.3,7.8,14.3,13,18.9L838.2,386.6z"/>
		</g>
		<g opacity="0.41">
			<path fill="#0B4361" d="M764.5,386.6l-5.1-5.9c5.4-4.6,10.3-12.7,13.5-21.9c2.7-7.6,3.8-15.9,3-22.7l7.8-0.8
				c0.8,7.8-0.3,17.8-3.2,26.2C776.6,372,771,381.2,764.5,386.6z"/>
		</g>
		<g>
			<path fill="#0B4361" d="M655.4,315.3l-6.5-8.6c44.3-33.2,105-6.7,105.5-6.5l-4.6,9.7C749.4,309.6,694.3,286.1,655.4,315.3z"/>
		</g>
		<g>
			<path fill="#0B4361" d="M799.3,493.2c-34.6,0-59.4-13.8-71.5-22.4l7-10c11.3,8.1,35.4,21.3,68.8,20c28.9-1.1,44-7.8,58.3-17.5
				l7,10C853,484,836,491.6,804.5,492.9C802.6,493.2,800.9,493.2,799.3,493.2z"/>
		</g>
		<g>
			<path fill="#808285" d="M1018.5,288.6c5.7-27.3,8.9-54.8,7.6-82.6c-2.2-41.6-13-79.1-53.7-100.1c-2.2-1.1-3.5-2.7-4.6-5.1
				C952.1,66.1,924,45.4,890,31.9c-53.4-21.1-105.3-12.1-156.3,10.3c-5.1,2.2-10.3,4-15.9,4.9c-36.4,4.6-65.1,20.5-77.7,57.5
				c-1.1,3.2-3.5,5.1-6.5,6.7c-28.6,15.4-42.4,40.8-48.3,71.5c-5.9,31.9-3.5,62.1,3,93.1c10.5,21.3,31.9,43.2,35.6,66.7
				c4.9,8.9-3.5,26.5,3.2,26.5c0-19.2,5.1-38.1,5.4-57.2c0.8-41.8,12.4-103.1,39.7-135c1.6-1.6,2.7-4,6.5-4.3
				c4,26.2-3,49.7-16.5,71.8c0.5,0.5,0.8,0.8,1.3,1.3c34-20.2,58-48.9,73.2-89.1c2.4,15.1,0.3,27-1.6,42.1
				c13-12.4,16.7-25.6,23.5-39.1c9.7,30.2,20.5,58,59.1,61c-9.2-27.5-18.1-53.7,0.5-83.1c8.4,55.1,32.4,92.1,91.8,98.3
				c-21.9-27.8-20.2-57.5-17.5-87.5c5.7,14,8.6,28.9,14.6,42.9c7.6,18.1,17,34.8,32.4,47.5c9.2,7.8,19.7,14,31.3,14.3
				c11.9,0.3,13.8,5.4,14.6,15.1c1.3,14,1.9,28.1,1.9,42.4c0,13.5-0.3,29.4-0.5,42.9c5.9,0.3-4,0.5,1.9,0.5
				c0.3-7.8,8.1-48.6,9.4-56.1L1018.5,288.6z"/>
			<path fill="#0B4361" d="M987,363l-2-3.7l0,0h-3.2v-4.6l0,0c0-0.3,0-0.5,0-0.8l0,0c0.3-11.6,0.5-28.6,0.5-42.9
				c0-14.6-0.5-28.3-1.9-41.8c-0.8-8.4-1.6-10.3-9.4-10.3c-11.3-0.3-22.7-5.4-34.8-15.7c-14-11.9-24.3-27-33.7-49.7
				c-2.2-5.4-4-10.8-5.7-16.2c0.3,19.7,4,37.8,17.8,55.3l8.1,10l-12.7-1.3c-51-5.4-81.3-32.9-93.4-86.7c-7.6,21.6-0.8,41.6,6.7,64.2
				l2.7,8.1l-8.1-0.5c-37-2.7-51-28.3-59.4-51.8c-4.3,9.4-9.2,19.2-18.9,28.3l-10.8,10.3l1.9-14.8c0.3-2.2,0.5-4,0.8-6.2
				c0.5-3.8,0.8-7.3,1.3-10.8c-15.1,29.4-36.7,52.1-65.3,68.8l-3.8,2.2l-3-3.2c-0.3-0.3-0.8-0.8-1.1-1.1l-3.2-3l2.4-3.8
				c12.1-19.7,17.5-39.1,16.7-58.8c-24.8,30.8-36.7,88-37.3,129.3c-0.3,9.7-1.6,19.2-2.7,28.3c-1.3,10-2.7,19.2-2.7,28.6v5.4h-5.4
				c-2.4,0-4.3-0.8-5.9-2.4c-3-3.2-2.4-8.4-1.9-14c0.5-4.3,1.1-10-0.3-12.7l-0.5-0.8l-0.3-0.8c-2.2-13.8-11.6-27.5-20.5-40.8
				c-5.4-7.8-10.8-16.2-14.8-24.3l-0.3-0.5l-0.3-0.5c-7.6-35.9-8.4-66.1-3-95.3c6.7-35.6,23.5-60.5,51-75.3c2.4-1.3,3.5-2.2,4-3.8
				c12.4-35.4,39.1-55.6,82.3-61.3c4.6-0.5,9.2-1.9,14.6-4.3c34.8-15.1,66.1-22.7,96.1-22.7c22.1,0,43.7,4,64.2,12.4
				c39.7,15.7,65.9,39.1,80.7,71.5c0.8,1.6,1.3,2.2,2.2,2.4c46.7,24,54.8,68.6,56.4,104.7c1.3,25.4-1.1,52.9-7.6,84l-0.5,2.4
				l-20,10.3c-0.3,2.2-0.8,5.1-1.6,8.6c-2.4,13.5-6.5,35.4-7.3,42.7l0.3,0.8l-0.3,0.8l-0.3,4.9H994L987,363z M593.4,274.3
				c3.5,7.3,8.6,14.6,13.8,22.4c7.3,10.8,14.6,21.6,18.9,33.2c0.8-5.9,1.3-12.1,1.3-18.1c0.8-45.9,13.8-106.4,41-138.2
				c0.3-0.3,0.3-0.5,0.5-0.8c1.3-1.9,4-5.4,10-5.4h4.6l0.8,4.6c3,20.2,0.3,40-8.9,59.9c25.6-18.9,44.3-44.3,56.4-76.7l7.3-19.4
				l3.2,20.5c1.3,8.9,1.3,16.7,0.5,24.6c2.4-4.3,4.6-8.9,6.7-13.8c1.3-3,2.7-6.2,4.3-9.2l5.9-11.9l4,12.7
				c8.9,28.3,18.4,50.5,46.2,56.1c-8.1-25.1-14-51,3.8-79.6l7.8-12.1l2.2,14.3c8.4,54.5,31.9,83.4,75,91.8
				c-15.1-25.4-14-51.8-11.3-80.7l2.2-22.1l8.1,20.5c2.7,7,4.9,14,7,20.8c2.4,7.6,4.6,14.8,7.6,21.9c8.6,20.8,18.4,34.8,30.8,45.6
				c10.3,8.6,19.4,13,28.1,13c16.7,0.3,18.9,10,20,20c1.1,10.3,1.6,20.5,1.9,31c0-0.5,0.3-1.1,0.3-1.6l0.5-2.7l20-10.3
				c5.9-29.2,8.1-54.8,6.7-78.6c-2.7-49.9-17.8-78.6-50.7-95.8c-3.2-1.6-5.4-4-7-7.8c-13.5-30-37.8-51.6-74.8-66.1
				c-19.7-7.8-39.4-11.6-60.5-11.6c-28.3,0-58.3,7-91.8,21.6c-6.5,2.7-11.9,4.3-17.5,5.1c-39.1,5.4-62.6,22.7-73.7,54.3
				c-1.9,5.1-5.7,7.8-8.9,9.7c-24.6,13.5-39.4,35.6-45.4,68C585.5,211.6,586.3,239.4,593.4,274.3z"/>
		</g>
		<g opacity="0.15">
			<g>
				<path fill="#0B4361" d="M908.8,40.8c0,7,30.8,132.8,37,182.2c1.9,15.7,7.6,32.1,8.6,49.4c1.1,15.4,1.3,21.1,1.3,36.7
					c-0.3,73.7-25.1,156.6-30.8,168.2c-17.5,37.5-55.1,100.1-130.4,100.1c-0.3,0-0.3,0-0.5,0v1.6c-0.5,0-1.3,0-1.9-0.3
					c-33.7-3.5-68.6-4.6-95.8-27.8l-8.6,36.7c43.5,20.8,64.5,74.8,108.8,74.8c0.3,0,18.2-0.5,18.5-0.5c38.9-0.3,50.9-63.8,89.5-83.2
					l-2.7-22.4l50.5-71c5.9-19.4,9.7-59.4,17-76.9l0,0c3.5,0,6.7-1.1,9.7-2.2c2.7-1.1,5.1-2.2,7.3-2.2l0,0l0,0
					c10.5,0,18.6-51,18.9-61.5c0-10.5,13.5-43.2,13.5-53.7s6.2-18.9,5.9-40c-0.3-10.5,4-31.9,4-31.9s-14.6-73.7-20.2-83.1l-40.8-31
					l-25.1-40.5L908.8,40.8z"/>
			</g>
		</g>
		<g>
			<path fill="#0B4361" d="M943.5,320.7c-38.6-28.9-93.9-5.4-94.5-5.4l-4.6-9.7c0.5-0.3,61.3-26.7,105.5,6.5L943.5,320.7z"/>
		</g>
		<g>
			<ellipse fill="#0B4361" cx="706.2" cy="311.2" rx="12.7" ry="14.3"/>
		</g>
		<g>
			<ellipse fill="#0B4361" cx="889.2" cy="317.5" rx="12.7" ry="14.3"/>
		</g>
	</g>
</g>
<g id="Layer_3" display="none">
</g>
</svg>
