gup<?xml version="1.0" encoding="utf-8"?>
<!-- Generator: Adobe Illustrator 18.1.1, SVG Export Plug-In . SVG Version: 6.00 Build 0)  -->
<!DOCTYPE svg PUBLIC "-//W3C//DTD SVG 1.1//EN" "http://www.w3.org/Graphics/SVG/1.1/DTD/svg11.dtd">
<svg version="1.1" xmlns="http://www.w3.org/2000/svg" xmlns:xlink="http://www.w3.org/1999/xlink" x="0px" y="0px"
	 viewBox="0 0 291.1 322.4" enable-background="new 0 0 291.1 322.4" xml:space="preserve">
<g id="white_Knockout_Layer">
</g>
<g id="Beeple_Art">
	<g>
		<path fill="#F7D8BA" d="M242.5,189.3c-18-15.8-16-36.2-11.8-59.3l0.5-2.8l0,0l0.3-1.4c2.7-14.8,5.8-31.6,0.3-46.1
			c-13.6-36.1-41.9-59.9-75.6-63.8c-2.9-0.3-5.8-0.5-8.8-0.5c-36.8,0-75.6,25.1-88.3,57.1c-5.9,14.9-3,32.2-0.2,49l1.4,8.5
			c3,19.5-1,38.3-18.5,53.6l4.5,2.6l1.2,0.7c10.6,6.4,27.3,7.7,39.5,7.7c3.7,0,7.4-0.1,11.1-0.4l1.7-0.1l-0.9-1.4
			c-6.5-10.1-14.9-26.9-18.2-49l-0.1-0.7l-0.6-0.2c-2.2-0.6-4.6-1.4-6.1-3.6c-0.9-1.3-1.2-2.9-1.5-4.3c-0.7-4.1-1.1-8.3-1-12.5
			l0-1.2l0.1-2.8c9-4.9,20-8.9,30.6-12.8c15.9-5.8,32.4-11.9,43.5-21.1c12.3-10.2,16.3-22.7,12.6-39.2l1.9-0.5
			c0.7,3.3,1.2,6.6,1.3,9.7l0.1,2l1.1-0.9c4.6,5.2,10.2,7.7,16.2,10.3c8.8,3.9,17.9,7.9,21.7,21.5c1,3.5,0.8,7.2,0.6,10.8
			c-0.2,4.2-0.4,8.2,1.1,11.7c2.4,5.7,11,9.2,18.7,12.3l0,2.2l-0.1,8.6c0,1.9,0,4-0.6,5.9c-0.7,2.3-2,4.1-3.8,5.1
			c-1.2,0.6-2.5,0.9-3.6,1l-0.7,0.1l-0.1,0.7c-3.8,19.2-10.9,36.7-20.4,50.6l-1,1.4l1.7,0.1c3.9,0.3,7.8,0.4,11.7,0.4c0,0,0,0,0,0
			c11.8,0,28-1.3,38.5-7.7l1.2-0.7L242.5,189.3z"/>
		<g>
			<path fill="#A3BBEF" d="M60.5,283.6c24.6,15.3,57.5,19.1,80.8,19.5c26.5,0.5,61.9-2.7,80-20.9c10.2-10.2,10.1-20.4,10.1-20.5
				c0-0.1,0-0.2,0-0.2l-8.5-2.8c0.1,3.1-0.5,10.5-7,18c-11.6,13.5-35.2,20.4-70.4,20.4c-81.6,0-95-30.6-95.5-31.9
				c0-0.1-0.1-0.2-0.1-0.3l-7.7,2.6C44.5,270.5,49.9,277,60.5,283.6z"/>
			<path fill="#A3BBEF" d="M263.5,272.3l-28.2-9.4c-0.2,3.2-1.8,12.8-11.2,22.2c-14.7,14.7-40.6,22.1-77.2,22.1
				c-1.9,0-3.8,0-5.7-0.1c-23.9-0.5-57.8-4.4-83.1-20.3c-12-7.5-17.7-15-19.7-18.1l-10.7,3.6C4.5,280.5,4,294.7,4,295.4v23h283.1
				v-23C287.1,294.7,286.7,280.5,263.5,272.3z"/>
		</g>
		<path fill="#F7F0F0" d="M218.9,257.7l-30.3-10.1c-13.6-5.3-13.8-14-13.8-14.3v-19.7c16.8-14.9,30.7-41.3,36-71.8l3.9,0.7
			c0,0.2-0.1,0.5-0.1,0.7c0.6-0.2,1.2-0.4,1.8-0.4c1.2,0,2.5-0.1,3.7-0.1c2.2-5.2,2.1-15.4-0.5-18.1c-1.3-1.4-3.2-1.9-5.4-2.5
			c-2.8-0.8-6.1-1.7-8.4-4.8c-3.5-4.6-3.5-11.4-3.4-17.9c0-4.7,0.1-9.6-1.3-13.1c-3-7.3-8.7-14-15.3-17.9c-2.3-1.4-5.2-2.4-8.2-3.4
			c-5.1-1.7-10.7-3.6-14.2-7.9c-9.8,28.1-22.4,33.3-31.9,39.3c-8.1,5-27.2,9.5-41,15.3c-4,1.7-16.4,5.6-17.8,8.8
			c-1.6,3.7,0.7,10.1,0.9,15c0,1.8,8.1,6.8,8.2,8.6c1.8,32.1,18.9,52.5,34.7,68.2v20.9c0,0.4-0.2,9-13.8,14.3l-0.1,0l-48.8,16.3
			c0,0,0,0.1,0,0.1c0.1,0.3,13.3,29.4,91.8,29.4c42.2,0,59.9-10.3,67.3-19c7.1-8.3,5.9-16.2,5.9-16.3
			C218.9,258,218.9,257.8,218.9,257.7z"/>
		<path fill="none" stroke="#0B4361" stroke-width="4" stroke-miterlimit="10" d="M232.4,129.4c-7-5.3-26.9-8.7-30.9-18.4
			c-2.9-7,0.3-15.4-1.7-22.6c-6.3-22.3-26.5-17.7-38.4-32.2"/>
		<g opacity="0.42">
			<defs>
				<path id="SVGID_9_" opacity="0.42" d="M286.9,318.4H3.8v-23c0-0.6,0.5-14.9,23.6-23.1l10.7-3.6c2,3.1,7.7,10.5,19.7,18.1
					c25.4,15.9,59.2,19.9,83.1,20.3c1.9,0,3.8,0.1,5.7,0.1c36.6,0,62.6-7.4,77.2-22.1c9.4-9.5,11-19,11.2-22.2l28.2,9.4
					c23.2,8.2,23.6,22.5,23.6,23.1V318.4z"/>
			</defs>
			<clipPath id="SVGID_2_">
				<use xlink:href="#SVGID_9_"  overflow="visible"/>
			</clipPath>
			<g clip-path="url(#SVGID_2_)">
				<line fill="none" stroke="#FFFFFF" stroke-width="2.0208" stroke-miterlimit="10" x1="0" y1="315.2" x2="292.3" y2="315.2"/>
				<line fill="none" stroke="#FFFFFF" stroke-width="2.0208" stroke-miterlimit="10" x1="0" y1="308.3" x2="292.3" y2="308.3"/>
				<line fill="none" stroke="#FFFFFF" stroke-width="2.0208" stroke-miterlimit="10" x1="0" y1="301.4" x2="292.3" y2="301.4"/>
				<line fill="none" stroke="#FFFFFF" stroke-width="2.0208" stroke-miterlimit="10" x1="0" y1="294.5" x2="292.3" y2="294.5"/>
				<line fill="none" stroke="#FFFFFF" stroke-width="2.0208" stroke-miterlimit="10" x1="0" y1="287.6" x2="292.3" y2="287.6"/>
				<line fill="none" stroke="#FFFFFF" stroke-width="2.0208" stroke-miterlimit="10" x1="0" y1="280.7" x2="292.3" y2="280.7"/>
				<line fill="none" stroke="#FFFFFF" stroke-width="2.0208" stroke-miterlimit="10" x1="0" y1="273.8" x2="292.3" y2="273.8"/>
				<line fill="none" stroke="#FFFFFF" stroke-width="2.0208" stroke-miterlimit="10" x1="0" y1="266.9" x2="292.3" y2="266.9"/>
			</g>
		</g>
		<g>
			<path fill="none" stroke="#0B4361" stroke-width="4" stroke-miterlimit="10" d="M212,142.5c-8.3,47.3-35.7,83-65.9,83.2
				C115.5,226,76.4,175.4,81,115.4"/>
		</g>
		<path fill="none" stroke="#0B4361" stroke-width="4" stroke-linecap="round" stroke-miterlimit="10" d="M89.4,283"/>
		<path fill="none" stroke="#0B4361" stroke-width="4" stroke-linecap="round" stroke-miterlimit="10" d="M189.3,258"/>
		<path fill="none" stroke="#0B4361" stroke-width="4" stroke-linecap="round" stroke-miterlimit="10" d="M220.8,257.6
			c0,0,5.9,37.6-75.2,37.6c-81.1,0-93.6-30.7-93.6-30.7"/>
		<path fill="none" stroke="#0B4361" stroke-width="4" stroke-linecap="round" stroke-miterlimit="10" d="M233.3,261.9
			c0,0,1,45.3-92.2,43.4c-83-1.7-102-38.8-102-38.8"/>
		<path fill="none" stroke="#0B4361" stroke-width="4" stroke-miterlimit="10" d="M176.8,214.4V233c0,0,0,7.6,12.5,12.5l74.9,25
			c25,8.9,25,25,25,25v25H2v-25c0,0,0-16.1,25-25l74.9-25c12.5-4.9,12.5-12.5,12.5-12.5v-21.3"/>
		<path fill="none" stroke="#0B4361" stroke-width="4" stroke-linecap="round" stroke-miterlimit="10" d="M201.7,283"/>
		<path fill="none" stroke="#48626F" stroke-width="5.2849" stroke-linecap="round" stroke-miterlimit="10" d="M81.3,168.2"/>
		<g>
			<path fill="#0A4261" d="M159.1,168c0,0-0.1,0.1-0.2,0.2c-0.1,0.1-0.3,0.3-0.6,0.5c-0.6,0.5-1.4,1-2.5,1.5
				c-1.1,0.5-2.3,1.1-3.8,1.4c-0.7,0.2-1.5,0.3-2.3,0.3c-0.4,0-0.8,0-1.2,0l-0.3,0c-0.2,0-0.2,0-0.3,0l-0.5,0
				c-1.6-0.2-3.1-0.6-4.4-1.1c-1.3-0.6-2.4-1.3-3.3-2c-0.9-0.7-1.5-1.4-2-1.8c-0.4-0.5-0.7-0.8-0.7-0.8l1.5-1.3c0,0,0.2,0.2,0.6,0.6
				c0.4,0.4,1.1,0.9,1.9,1.3c0.8,0.5,1.8,0.9,2.9,1.3c0.6,0.2,1.1,0.3,1.7,0.4c0.6,0.1,1.2,0.1,1.8,0.1l0.5,0c0.1,0,0.2,0,0.2,0
				l0.2,0c0.3,0,0.6-0.1,0.9-0.1c0.6-0.1,1.1-0.3,1.6-0.5c1-0.4,2-0.9,2.7-1.4c0.7-0.5,1.3-1,1.6-1.3c0.2-0.2,0.3-0.3,0.4-0.4
				c0.1-0.1,0.2-0.2,0.2-0.2L159.1,168z"/>
		</g>
		<path opacity="0.1" fill="none" stroke="#0B4361" stroke-width="2.4969" stroke-miterlimit="10" d="M166,135.7
			c10.8-5.4,23.4-1.6,26,0.7"/>
		<path opacity="0.1" fill="none" stroke="#0B4361" stroke-width="2.4969" stroke-miterlimit="10" d="M100.8,135.5
			c10.6-5.8,23.3-2.4,26-0.2"/>
		<path fill="#0B4361" d="M108.1,123.2c0.2,3.2,3.1,5.6,6.3,5.4s5.7-3,5.4-6.2c-0.2-3.2-3.1-5.6-6.3-5.4
			C110.3,117.2,107.8,120,108.1,123.2z"/>
		<g>
			<path fill="#0B4361" d="M160.9,119.1c0,0,0.6-0.4,1.5-1c1-0.6,2.5-1.5,4.3-2.4c1.8-0.9,4.1-1.8,6.6-2.4c2.5-0.7,5.3-1,8.1-0.9
				c1.4,0.1,2.8,0.2,4.1,0.5c1.4,0.3,2.6,0.7,3.9,1.2c0.6,0.3,1.2,0.5,1.7,0.8c0.5,0.3,1.1,0.6,1.6,0.9c0.5,0.3,1,0.6,1.4,0.9
				c0.4,0.3,0.9,0.7,1.3,1c0.8,0.6,1.5,1.3,2.1,1.8c0.6,0.6,1.1,1.1,1.5,1.5c0.8,0.9,1.2,1.4,1.2,1.4l-2.1,1.8c0,0-0.4-0.5-1.2-1.3
				c-0.4-0.4-0.9-0.8-1.4-1.4c-0.6-0.5-1.2-1.1-1.9-1.6c-0.4-0.3-0.8-0.5-1.2-0.8c-0.4-0.3-0.9-0.5-1.3-0.8
				c-0.5-0.2-0.9-0.5-1.4-0.7c-0.5-0.2-1-0.4-1.5-0.7c-1.1-0.4-2.2-0.7-3.4-0.9c-1.2-0.2-2.4-0.3-3.6-0.4c-2.4,0-4.8,0.4-7.1,1
				c-2.2,0.6-4.2,1.5-5.9,2.4c-1.7,0.8-3,1.7-3.9,2.3c-0.9,0.6-1.5,1-1.5,1L160.9,119.1z"/>
		</g>
		<g>
			<path fill="#0B4361" d="M131.2,122.3c0,0-0.5-0.4-1.5-1c-0.9-0.6-2.2-1.4-3.9-2.3c-1.7-0.9-3.7-1.7-5.9-2.4c-2.2-0.6-4.6-1-7.1-1
				c-1.2,0-2.4,0.1-3.6,0.4c-1.2,0.2-2.3,0.6-3.4,0.9c-0.5,0.2-1,0.4-1.5,0.7c-0.5,0.3-1,0.5-1.4,0.7c-0.4,0.3-0.9,0.5-1.3,0.8
				c-0.4,0.3-0.8,0.6-1.2,0.8c-0.7,0.6-1.4,1.1-1.9,1.6c-0.5,0.5-1,1-1.4,1.4c-0.7,0.8-1.2,1.3-1.2,1.3l-2.1-1.8
				c0,0,0.4-0.5,1.2-1.4c0.4-0.5,0.9-0.9,1.5-1.5c0.6-0.6,1.3-1.2,2.1-1.8c0.4-0.3,0.8-0.6,1.3-1c0.5-0.3,1-0.6,1.4-0.9
				c0.5-0.3,1.1-0.6,1.6-0.9c0.6-0.3,1.1-0.5,1.7-0.8c1.2-0.5,2.5-0.9,3.9-1.2c1.3-0.3,2.7-0.5,4.1-0.5c2.8-0.1,5.6,0.3,8.1,0.9
				c2.5,0.7,4.7,1.6,6.6,2.4c1.8,0.9,3.3,1.7,4.3,2.4c1,0.6,1.5,1,1.5,1L131.2,122.3z"/>
		</g>
		<path fill="#0B4361" d="M184.4,123.6c-0.2,3.1-3,5.4-6.1,5.2c-3.1-0.2-5.5-2.9-5.2-6c0.2-3.1,3-5.4,6.1-5.2
			C182.3,117.9,184.6,120.5,184.4,123.6z"/>
		
			<line opacity="0.25" fill="none" stroke="#0B4361" stroke-width="3" stroke-miterlimit="10" x1="150.6" y1="122.6" x2="155.9" y2="156.8"/>
		<path fill="none" stroke="#0B4361" stroke-width="4" stroke-miterlimit="10" d="M171.6,181.4c-6.2,3.8-14.2,7.3-23.7,7.3
			c-9.5,0-18.9-3.5-25.1-7.3"/>
		<path opacity="0.25" fill="#DF8DE2" d="M166.2,186.8c-8.2-9-11.8-3.9-18.8-3.9c-5.5,0-9.6-5.6-18.4,3.9l1.1,0.8
			c5.1,7.4,10.7,6.9,17.7,6.9c5.5,0,11,0.8,17.9-7L166.2,186.8z"/>
		<path opacity="0.1" fill="none" stroke="#48626F" stroke-width="3.5" stroke-miterlimit="10" d="M134.9,206.9
			c10.3-7.5,22.6-2,25.3,1.3"/>
		<path opacity="0.26" fill="#0B4361" d="M235.8,104.7c4.8-20.1-23.1-73.1-49-80c-5.4-1.4-20.9-10.6-25.7-7.7
			c-4,2.4-8.9,10.9-2.9,25.1c0.5,1.3,0.8,2.6,0.8,4c0,0.3,0,0.5,0,0.8c4.4,13.4,16,18.9,26.7,27.1c0.2,0.1,0.3,0.2,0.5,0.4
			c3.2,2,6.1,4.4,8,7.5c5.9,6.9,8.9,15,5.6,24.8c0.8,2.8,1.7,5.6,2.4,8.5c2.2,8.7,1.5,19-0.5,27.3c-3.4,43.9-40.6,110.9-87.7,70.2
			c5.6,24.9,26.5,27.6,42.5,24.5c2.1-0.9,4.2-1.9,6.1-2.9c6.4-3.3,10.1-9,13.8-14.9c0.2-0.4,0.5-0.7,0.8-1c-0.1-0.6-0.1-1.2-0.1-1.9
			c-0.1-2.3,1.1-3.7,2.7-4.4c0.2-0.5,0.6-1,1.1-1.5c3.4-3.3,6-7.3,10.2-9.7c3.3-1.8,6.9-2.6,10.4-1.6c12.2,3.4,35.7-7,43.5-7.2
			C224.8,182.7,226.9,141.7,235.8,104.7z"/>
		<path fill="none" stroke="#0B4361" stroke-width="4" stroke-miterlimit="10" d="M103.3,200.9"/>
		<path fill="none" stroke="#0B4361" stroke-width="4" stroke-miterlimit="10" d="M159.2,44.7c14,58.5-71,56.2-100,84.4"/>
		<path fill="none" stroke="#0B4361" stroke-width="4" stroke-miterlimit="10" d="M190.8,199.6c15.6,1.3,41.4,1.1,54.8-8.9
			c-36.3-28.8,1.2-74.8-12.4-110.9c-12.6-33.4-40-60.3-76.4-64.4C118.5,11,73.1,36.4,58.6,72.7c-14.6,36.6,24.1,82.7-18.9,111.7
			c13.5,9.9,45.6,12.4,61.2,11.2"/>
		<path fill="none" stroke="#0B4361" stroke-width="4" stroke-miterlimit="10" d="M213.7,159.1c0.8,14.3,1.3,25.9,8,38.9"/>
		<path fill="none" stroke="#0B4361" stroke-width="4" stroke-miterlimit="10" d="M204,188.7c0.6,4,2.1,7.9,4.1,11.4"/>
		<path fill="none" stroke="#0B4361" stroke-width="4" stroke-miterlimit="10" d="M76.4,159.7c0.7,9.6-2,28.2-12.3,33.7"/>
		<path fill="none" stroke="#0B4361" stroke-width="4" stroke-miterlimit="10" d="M86.4,182.7c0.3,3.7-2.5,11.1-4.6,14"/>
		<path fill="none" stroke="#0B4361" stroke-width="4" stroke-miterlimit="10" d="M72.9,119.4c-0.3,5.3,0,10.7,0.9,15.9
			c0.2,1.4,0.5,2.8,1.3,3.9c1.5,2.2,4.4,3,7.1,3.6"/>
		<path fill="none" stroke="#0B4361" stroke-width="4" stroke-miterlimit="10" d="M212.8,144.8c1.2-0.2,2.4-0.4,3.4-0.9
			c1.7-0.9,2.8-2.7,3.3-4.5c0.5-1.8,0.5-3.8,0.6-5.7c0-3.7,0.1-7.3,0.1-11"/>
		<path fill="none" stroke="#0B4361" stroke-width="4" stroke-miterlimit="10" d="M127.7,58.4c-2,12.2-9.9,23.2-20.8,29.1
			c-15.9,8.6-36,5.9-51.9,14.5"/>
		<g>
			<path fill="none" stroke="#0B4361" stroke-width="3.8763" stroke-linecap="round" stroke-miterlimit="10" d="M141.3,123.6
				c0-2.9,11-2.9,11,0"/>
			<path fill="none" stroke="#0B4361" stroke-width="3.8763" stroke-linecap="round" stroke-miterlimit="10" d="M206.9,127.8
				c-12.3,25.9-62,21.1-53.1-8.6C158.5,103.6,219.5,101.2,206.9,127.8z"/>
			<path fill="none" stroke="#0B4361" stroke-width="3.8763" stroke-linecap="round" stroke-miterlimit="10" d="M87,127.8
				c12.3,25.9,62,21.1,53.1-8.6C135.4,103.6,74.4,101.2,87,127.8z"/>
		</g>
	</g>
</g>
<g id="Layer_3" display="none">
</g>
</svg>
