<?xml version="1.0" encoding="utf-8"?>
<!-- Generator: Adobe Illustrator 18.1.1, SVG Export Plug-In . SVG Version: 6.00 Build 0)  -->
<!DOCTYPE svg PUBLIC "-//W3C//DTD SVG 1.1//EN" "http://www.w3.org/Graphics/SVG/1.1/DTD/svg11.dtd">
<svg version="1.1" xmlns="http://www.w3.org/2000/svg" xmlns:xlink="http://www.w3.org/1999/xlink" x="0px" y="0px"
	 viewBox="0 0 313 346.9" enable-background="new 0 0 313 346.9" xml:space="preserve">
<g id="white_Knockout_Layer">
</g>
<g id="Beeple_Art">
	<path fill="#8DC63F" stroke="#8DC63F" stroke-miterlimit="10" d="M271,297.2c-6.3-2.1-14.4-3.9-22.9-5.8
		c-9.8-2.2-20.1-4.4-29.3-7.6c-0.4-0.3-0.8-0.6-1.2-0.9c-1.2-0.8-2.3-1.7-3.5-2.5c1-2.2,1.6-4.6,0.7-6.8c-1.1-2.9-10.6-7.3-15.9-9.1
		c-0.4-0.1-1-0.2-1.4-0.3c-1.5-0.2-2.6,0.1-3.5,0.9c-6,9.4-20.3,15.5-39.2,16.8c-1.7,0.1-3.4,0.2-5,0.2c-15.7,0-29.7-4.9-36.6-12.7
		c-0.2-0.3-0.9-0.6-1.6-0.6c-0.4,0-0.6,0.1-0.6,0.1c-1.3,1-2.5,2.2-3.7,3.5c-1.4,1.5-2.9,3-4.8,4.3c-2.3,1.6-5,2.5-7.5,3.2
		c0,0.2,0.1,0.3,0.1,0.5c-2.1,1.7-4.1,3.3-6.2,5c-0.1,0.1-0.2,0.2-0.3,0.3c-7.6,2.2-15.6,4-23.3,5.7c-8.5,1.9-16.6,3.6-22.9,5.8
		c-19.4,6.6-31.7,29.1-32.6,47.1h293.7C302.7,326.3,290.4,303.8,271,297.2z"/>
	<path fill="#918783" stroke="#0B4361" stroke-width="4" stroke-miterlimit="10" d="M204.3,215.2c6.1,10.3,27.4,2.1,38.7,8.8
		c-6-3.6-11.7-9.7-14.9-15.1c-1.9-3.2-2.6-7.4-2.2-10.7c4.8,3.9,16.4,7.6,22.5,7.8c-3.7-5.6-10.7-13.9-9.9-20.5l0.1-1.6
		c8.5,3.6,17.8,5.2,27,4.6c-7-5.3-12.7-12.3-16.6-20.2c8.2,3.5,29.9,2.2,38.9-3.8c-31.5-15-35.5-25.5-40-48
		c-3-14.8,0.6-30.1-0.8-45.1c-1.4-14-5.8-26.6-16.3-36.5c-12.4-11.6-29-15.3-45.4-13.3c-7.5,0.9-13.2-7.3-19.9-9.6
		c-8.9-3-18.6-3.2-27.8-1.7c-26.2,4.3-51.3,18.4-66.1,40.8c-13.3,20.2-11.2,44.2-14.8,66.9c-1.8,11.6,2.5,34.2-1.4,45.2
		c-3.2,8.9-9.2,18.9-17.5,24.2c11.9,0,23.7-2.4,34.7-7c-4.4,10.9-12.3,20.3-22.3,26.4c10.3,1.9,21.4-0.2,30.3-5.7
		c-1.3,6.6-3.9,12.9-7.5,18.5c8.9,0.7,17.9-1.7,25.3-6.6c2.4,8.1-9.7,23.9-14.3,29.2c6.5,0.2,26.5-1,32.3-20"/>
	<path fill="#918783" stroke="#0A4261" stroke-width="4" stroke-miterlimit="10" d="M108.5,19.7C80.2,34,69,38.8,56.7,72
		c9-7.6,17.4-22.8,28.9-27.5"/>
	<path fill="#F4EDED" d="M128.7,118.2c-2.6,0.6-5,2.3-7.6,3c-4,1.1-8.1,1.9-12.1,2.9c-5.1,1.2-11.1,2.9-16.5,4.2
		c12.3-12.5,23.4-26.3,31.9-41.8c1.6-2.9-2.5-5.2-4.3-2.5c-10.2,14.8-21.6,29.1-36.4,39.5c-1,0.7-1.3,1.6-1.1,2.8
		c-0.4-2.4-6.6,1.9-7.5,2.4c-2.3,1.3-3.1,1.9-2.9,4.7c0.2,3.4,1.4,7,2.1,10.3c1.4,6.8,2.3,18.2,8.9,22c0.8,0.5,1.7,0.6,2.5,1
		c1.5,0.6,1.2,0,1.8,0.9c0.7,0.9,0.4,4.3,0.6,5.6c0.3,2.1,0.7,4.2,1.1,6.2c1.6,6.9,4.2,13.6,7.7,19.8c6.1,10.7,14.6,19.6,24.2,27.1
		c0,5.9,0,11.8,0,17.7c0,0.2,0,0.4,0.1,0.6c0,8,0.1,15.6-5.2,22.3c-1.1,1.4-0.9,2.9,0.5,3.9c10.3,7.7,24.3,9.6,36.7,8.8
		c11.6-0.7,24.7-3.2,33.7-11.1c1.4-1.2,3.6-3,4.3-4.8c0.9-2.4-1-5.2-1.4-7.7c-0.4-2.6-0.5-5.3-0.6-7.9c-0.1-6.2,0-12.4,0-18.6
		c0-0.4-0.1-0.7-0.3-1c-0.1-1.1-0.2-2.4,0.1-3.1c0.2-0.4,2-1.2,3-2.1c1.6-1.4,3.2-2.8,4.8-4.2c4.8-4.4,9.2-9.1,13.1-14.2
		c5.8-7.6,10.4-16.2,12.7-25.5c0.8-3.3,0.7-7.2,1.7-10.4c0.7-2.2,2-1.4,4.1-2c1.6-0.5,2.9-1.4,4-2.7c4.4-5.1,5.3-13.2,6.6-19.6
		c1.3-6.6,5.2-16.6-4.1-18.4c-0.2-0.1-0.5-0.1-0.8-0.1c-0.2,0-0.4,0-0.6,0c-0.9,0-1.8,0-2.8,0c-0.3,0-0.6,0.1-0.9,0.2
		c-0.2-0.1-0.4-0.2-0.5-0.1c0-0.5,0.1-1,0.1-1.2c0.1-1.3-0.1-2.8,0.2-4.1c0.3-1.4-0.4-2.6-1.7-3.1c-21.5-8.6-37.5-26.1-45.3-47.7
		c-0.6-1.6-2.9-2.7-4.2-1.1c-6.3,7.9-12.9,15.6-19.6,23.1c-7.7,8.6-15.6,17.8-25.7,23.6L128.7,118.2z"/>
	<path fill="none" stroke="#0B4361" stroke-width="4" stroke-linecap="round" stroke-miterlimit="10" d="M231.3,128.1h3.9
		c3.7,0,6.7,3,6.7,6.7l-4.1,20.1c-2.8,8.3-4.3,13.4-11.7,13.4"/>
	<path fill="none" stroke="#0B4361" stroke-width="4" stroke-linecap="round" stroke-miterlimit="10" d="M84.1,127.6h-3.9
		c-3.7,0-6.7,3-6.7,6.7l4.1,20.1c2.8,8.3,4.3,13.4,11.7,13.4"/>
	<path fill="none" stroke="#0B4361" stroke-width="4" stroke-linecap="round" stroke-miterlimit="10" d="M87.6,168.3"/>
	<path fill="none" stroke="#0B4361" stroke-width="4" stroke-linecap="round" stroke-miterlimit="10" d="M86.5,128.1"/>
	<path fill="none" stroke="#0B4361" stroke-width="4" stroke-linecap="round" stroke-miterlimit="10" d="M203.3,291.2"/>
	
		<line fill="none" stroke="#0B4361" stroke-width="4" stroke-linecap="round" stroke-miterlimit="10" x1="229.1" y1="145.4" x2="230.1" y2="122.5"/>
	<path fill="none" stroke="#0B4361" stroke-width="4" stroke-linecap="round" stroke-miterlimit="10" d="M225.1,168.6
		c-2,30.6-23.5,50.4-45.2,65.7c-14.6,10.3-29.5,10.8-47,0.2c-21.6-13.1-42.3-35.1-44-65.9"/>
	<path fill="none" stroke="#0B4361" stroke-width="4" stroke-miterlimit="10" d="M168.5,175.7c-2.8,2-6.7,3.3-10.6,3.3
		c-4.7,0-9-1.5-11.9-4"/>
	<path fill="none" stroke="#0B4361" stroke-width="4" stroke-miterlimit="10" d="M184.4,197.2c-5.7,4.8-15.4,8.6-26.3,8.6
		c-12,0-22.4-3.8-27.8-9.3"/>
	<path opacity="0.15" fill="none" stroke="#0B4361" stroke-width="4" stroke-miterlimit="10" d="M147.5,217c8.1-5.2,19.7-1,21.5,1.6
		"/>
	<path opacity="0.15" fill="none" stroke="#0B4361" stroke-width="4" stroke-miterlimit="10" d="M148.8,142.4
		c1.9,11.8-6.1,21.8-9.3,23.4"/>
	<path opacity="0.15" fill="none" stroke="#0B4361" stroke-width="4" stroke-miterlimit="10" d="M172,165.6
		c-8.5-8.3-8.1-21.2-6.5-24.4"/>
	<path fill="none" stroke="#0B4361" stroke-width="4" stroke-miterlimit="10" d="M101.6,122.9c14.6-11.1,32.4-3.7,36.4,1"/>
	
		<ellipse transform="matrix(0.9966 8.247028e-02 -8.247028e-02 0.9966 11.8509 -9.589)" fill="#0B4361" cx="122" cy="138.7" rx="7" ry="7.4"/>
	
		<ellipse transform="matrix(0.9966 8.247028e-02 -8.247028e-02 0.9966 12.0865 -15.293)" fill="#0B4361" cx="191.2" cy="138.7" rx="7" ry="7.4"/>
	<path fill="none" stroke="#0B4361" stroke-width="4" stroke-miterlimit="10" d="M211.4,126.1c-14.5-11.3-32.4-4-36.4,0.6"/>
	<path fill="none" stroke="#0B4361" stroke-width="4" stroke-miterlimit="10" d="M189.8,227.2V250l0.4,6c2.3,28.9,55.2,31.1,81,39.9
		c20.5,6.9,34,31.1,34,51H7.5v0c0-19.9,13.6-44,34-51c25.9-8.8,78.7-11,81-39.9l0.2-2.5v-25.2"/>
	<path fill="none" stroke="#0B4361" stroke-width="4" stroke-linecap="round" stroke-miterlimit="10" d="M164.3,136.5
		c-0.2-4.6-15.9-3.8-15.9-0.2"/>
	<path fill="none" stroke="#0B4361" stroke-width="4" stroke-linecap="round" stroke-miterlimit="10" d="M214.3,128.8
		c-4,0-38.7,0-42.7,0c-4,0-7.3,2.8-7.3,6.2c0,3.4,1.9,9.2,3.7,12.3c1.7,3,3.3,6.2,7.3,6.2c4,0,31.7,0,35.8,0c4,0,5.7-3.1,7.3-6.2
		c1.7-3.3,3.3-8.9,3.3-12.3C221.6,131.6,218.3,128.8,214.3,128.8z"/>
	<path fill="none" stroke="#0B4361" stroke-width="4" stroke-linecap="round" stroke-miterlimit="10" d="M98.3,128.8
		c4,0,38.7,0,42.7,0c4,0,7.3,2.8,7.3,6.2c0,3.4-1.9,9.2-3.7,12.3c-1.7,3-3.3,6.2-7.3,6.2c-4,0-31.7,0-35.8,0c-4,0-5.7-3.1-7.3-6.2
		c-1.7-3.3-3.3-8.9-3.3-12.3C91.1,131.6,94.3,128.8,98.3,128.8z"/>
	<path fill="#8DC63F" stroke="#0B4361" stroke-width="4" stroke-miterlimit="10" d="M198.5,263c-2.6-0.6-4.8-0.1-6.3,1.5
		c-5.6,9-19.7,14.9-37.7,16c-17.5,1.1-32.9-3.8-40-11.8c-1.1-1.2-3.6-1.7-4.9-0.7c-3,2.3-5.2,5.5-8.4,7.7c-2.5,1.8-5.5,2.6-8.5,3.4
		c0.7,14.6,24,38.5,59.5,36.2c35.3-2.3,69.7-28.2,64.3-41.8C214.6,269.1,201.6,264,198.5,263C195.9,262.4,200.4,263.6,198.5,263z"/>
	<path fill="#918783" stroke="#0A4261" stroke-width="4" stroke-miterlimit="10" d="M202.4,55c1.8,10.3,8.3,19.5,16.8,25.6
		c8.5,6.1,17,9.2,27.5,9.9l0.2,0c-1.9,13.5,2,29.4,15.4,35.8c-52.8-1.5-73.5-36.1-80.3-58.1c0,0-28.7,36.4-43,46.7
		c-11,8-33.7,14.3-47.2,16c15.7-15.2,34.3-40.8,38.2-54.7l-2.6,0.8c-16.1,24.5-49.6,73.7-94.4,56.2c5.4-1.7,11.5-3.3,15.8-7
		C77,101.5,54,68.2,119.3,38.2"/>
	<path fill="none" stroke="#0B4361" stroke-width="4" stroke-miterlimit="10" d="M97.8,127.8c25.2-11.6,45.8-32.9,56.4-58.5"/>
	<path opacity="0.19" fill="#0B4361" d="M279.6,158.9c-5.1-2.4-10-5.3-14.5-8.8c-6.4-5-17.8-11.6-14.4-21.4c0.9-2.5,2.3-4.1,4-5.3
		c0.7-0.4,0.7-1.4,0.2-1.9c-2.5-2.7-4.6-5.8-6-9.3c-4.4-11.1-1.4-24-0.8-35.5c0.6-11.8-2.5-24.2-9.5-34c-5-6.9-13.3-12.2-21.7-15.6
		c-0.4-0.1-0.7-0.2-1.1-0.3c-1.2-0.5-2.5-1-3.7-1.4c-1.2-0.4-2.3-0.7-3.4-1.1c-0.2-0.1-0.4-0.1-0.5-0.2c-7.2-2-14.7-2.6-22.2-2.9
		c-0.7,0-1.2,0.5-1.3,1.2c-0.4,5.6-0.9,11.2-1.1,16.8c-0.3,10.6,0.6,21.5,1.7,32c0.5,5.2,1.6,10.2,4.3,14.7c2.4,4,5.7,7.4,8.1,11.4
		c2.6,4.2,4.8,8.7,8.8,11.7c3.7,2.7,8.2,4.2,12.5,5.6c2.3,0.8,3.5,2.6,3.6,4.6c0,0.2,0.1,0.4,0.2,0.6c0.4,0.7,0.6,1.6,0.6,2.6
		c-0.3,8.4-0.3,17-2,25.3c-1.2,5.7-3.5,10.7-6.9,15.2c-0.1,0.1-0.1,0.2-0.1,0.3c-4.5,11.1-6.2,19.9-10,33.2
		c-3.4,11.6-14.7,24.1-23.3,32.9c-8.7,8.9-21.9,11.2-33.8,9.2c-6.3-1-10.9-4.2-16.1-7.6c-3.1-2-6.2-2.3-9.5-2.1
		c-0.7,0.1-1.2,0.6-1.2,1.3v4.7c0,0.3,0.1,0.6,0.2,0.8c0.7,0.8,1,4.6,1.7,5.2c11.2,9,24.1,15.2,38.3,14.3c11-0.7,22.4-9.5,29.1-19
		c0.2-0.2,0.2-0.5,0.2-0.7v-7c0-0.4,0.2-0.7,0.5-1c2.7-2.1,5.9-4.6,8.8-7.1c0.1,0,0.1-0.1,0.1-0.2c0.4-0.5,0.9-0.9,1.4-1.3
		c0.1,0,0.1-0.1,0.2-0.1c0.4-0.4,0.8-0.7,1.2-1.1c0.5-0.5,1.3-0.5,1.8,0c0.1,0.1,0.1,0.1,0.2,0.2c0.2,0.2,0.4,0.3,0.7,0.3
		c1.1,0.2,2.2,0.8,3,1.9c0.2,0.2,0.4,0.3,0.6,0.5c1.1,0.4,2.3,0.8,3.5,1c0.1,0,0.2,0,0.3,0c1.4,0,2.8-0.2,3.6-0.3
		c2.8-0.1,5.6-0.1,8.4,0c3.5,0.2,7.7,0.7,11.7,0.6c1.1,0,1.6-1.3,1-2.1c-1.6-2-3.4-3.8-5.2-5.7c-0.1-0.1-0.2-0.2-0.3-0.2
		c-3.3-1.9-5.9-4.7-7.2-8.8c-1.8-5.8,6-8.1,9.1-3.9c0.9,1.2,1.8,2.3,2.8,3.3c0.2,0.2,0.4,0.3,0.6,0.4c2.6,0.8,5.1,1.5,7.4,1.9
		c0.1,0,0.2,0,0.2,0c1.6,0,3.3-0.1,4.9-0.5c0,0,0,0,0,0c0.9-0.2,1.3-1.2,0.8-1.9l-0.2-0.3c-0.7-1.1-1.5-2.2-2.3-3.4
		c-0.3-0.5-0.7-1-1.1-1.5c0-0.1-0.1-0.1-0.2-0.2c-1.3-1.3-2.6-2.5-4-3.7c-0.9-0.7-1.8-1.5-2.5-2.4c-4.2-4.8,2.4-11.6,7.1-7.1
		c0.4,0.4,0.9,0.9,1.5,1.4c0,0,0.1,0.1,0.1,0.1c0.9,0.6,1.8,1.1,2.8,1.5c0.1,0,0.2,0.1,0.3,0.1c2.9,0.5,5.8,0.8,8.7,0.8
		c0,0,0.1,0,0.1,0c0.7-0.1,1.4-0.1,2.1-0.2c1.4-0.1,2.7-0.4,4.1-0.7c1-0.2,1.4-1.6,0.5-2.2c-1.8-1.4-3.5-2.8-3.8-3
		c-2.9-1.9-6.1-3.8-8.5-6.4c-1.3-1.4-1.7-3.1-1.2-4.6c0.1-0.4,0-0.7-0.2-1c-0.2-0.3-0.4-0.6-0.5-0.9c0.3,0,0.6,0.1,0.9,0.1
		c0.4,0.1,0.8-0.1,1.1-0.4c0.9-1,2.1-1.6,3.6-1.7c4.9-0.4,9.5,1,14.2,1.8c0.1,0,0.3,0,0.4,0c6.2-0.9,12-2.7,15.8-5.2l0.2-0.1
		c0.7-0.4,0.8-1.4,0.2-1.9C287,161.3,281.4,159.8,279.6,158.9z"/>
	<g opacity="0.18">
		<path fill="#0B4361" d="M176,324.4c1.1,0,2.1,0,3.2,0c13.3-4.7,28.2-6.4,38.4-16.8c4-4.1,7.3-8.6,10.2-13.4
			c0.3-1.5,0.6-3.1,0.8-4.6c0.2-1,0.3-2.1-0.2-3c-0.3-0.7-0.9-1.2-1.6-1.6c-2.7-1.9-6.3-3.2-9.2-1.7c-1.7,0.8-2.8,2.4-4,3.9
			c-8.7,11-21.3,18.5-34.7,22.8c-13.4,4.2-27.6,5.4-41.6,5.3l-0.5,0.7C147.6,324.2,162.4,324.5,176,324.4z"/>
	</g>
	<path opacity="0.14" fill="#E31837" d="M176.9,203.4c-8.2-9-11.8-3.9-18.8-3.9c-5.5,0-9.6-5.6-18.4,3.9l1.1,0.8
		c5.1,7.4,10.7,6.9,17.7,6.9c5.5,0,11,0.8,17.9-7L176.9,203.4z"/>
</g>
<g id="Layer_3" display="none">
</g>
</svg>
