<?xml version="1.0" encoding="utf-8"?>
<!-- Generator: Adobe Illustrator 18.1.1, SVG Export Plug-In . SVG Version: 6.00 Build 0)  -->
<!DOCTYPE svg PUBLIC "-//W3C//DTD SVG 1.1//EN" "http://www.w3.org/Graphics/SVG/1.1/DTD/svg11.dtd">
<svg version="1.1" xmlns="http://www.w3.org/2000/svg" xmlns:xlink="http://www.w3.org/1999/xlink" x="0px" y="0px"
	 viewBox="0 0 371.9 330" enable-background="new 0 0 371.9 330" xml:space="preserve">
<g id="white_Knockout_Layer">
</g>
<g id="Beeple_Art">
	<g>
		<path fill="#A3BBEF" d="M27,289.4c-2.2,7.4-1,28.7,0,38.9l40.2,0h230.8h41.2c0-0.3,2.6-28.1,2.6-37.8c0-4.9-3.1-17.3-31.7-27.1
			L244.8,243l-2.2-0.7l1-2.1l0.7-1.4c0-7.2-6.1-13-13.6-13h0l-9.4,2.7c-0.6,0.2-1.2,0.6-1.6,1.1c-0.4,0.5-0.6,1.1-0.6,1.8v16.4
			c0,3.2-1.5,6.1-4.1,8.1l-25.2,19.3c-1.9,1.5-4.3,2.3-6.7,2.3c-2.4,0-4.8-0.8-6.7-2.3l-25.2-19.3c-2.6-2-4.1-4.9-4.1-8.1v-16.4
			c0-0.6-0.2-1.3-0.6-1.8c-0.4-0.5-0.9-0.9-1.6-1.1l-9.4-2.7h0c-7.5,0-13.6,5.8-13.6,13l0.4,0.9l0.9,2l-2.1,0.7l-62.7,20.9
			C40.8,269.5,30.5,278,27,289.4z"/>
		<path fill="#F7F0F0" d="M254.7,116.8h-5.3v10.3c0,1.1-0.9,2-2,2s-2-0.9-2-2v-14.3h0c-0.1-0.2-0.1-0.5-0.1-0.7
			c0-12.2-2.3-20.4-6.2-29.8C224,50.4,202.4,62.6,181,62.6c-22.8,0-37.5-5.2-55.9,17c-3.3,8.3-6.7,20-6.7,32.9c0,0.1,0,0.2,0,0.3h0
			v14.3c0,1.1-0.9,2-2,2s-2-0.9-2-2v-10.3h-5.3c-2.9,0-5.3,1.9-5.3,4.2v18.5c0,5.3,3.8,14.5,5.3,14.9l7.2,0
			c-0.2-2.2-0.4-4.4-0.5-6.6c-0.1-1.1,0.8-2,1.9-2.1c1.1-0.1,2,0.8,2.1,1.9c1.7,31.4,13.8,53.5,29.6,66v5l0.3,25v10.5l33.1,21.7
			l32-21l1.7-7.3v-32l6.2-9.3c0.2-0.3,0.5-0.5,0.7-0.7c12.5-14.3,19.8-34.3,21.3-57.9c0.1-1.1,1-1.9,2.1-1.9c1.1,0.1,1.9,1,1.9,2.1
			c-0.1,2.2-0.3,4.4-0.6,6.6h6.7c1.5-0.4,5.3-9.6,5.3-14.9V121C260,118.7,257.6,116.8,254.7,116.8z"/>
		
			<ellipse transform="matrix(-0.9974 7.236721e-02 -7.236721e-02 -0.9974 305.2723 241.351)" fill="#0B4361" cx="148.3" cy="126.2" rx="6.5" ry="6.9"/>
		
			<ellipse transform="matrix(0.9974 7.236730e-02 -7.236730e-02 0.9974 9.697 -15.2321)" fill="#0B4361" cx="215.1" cy="126.2" rx="6.5" ry="6.9"/>
		<path fill="none" stroke="#0B4361" stroke-width="3.198" stroke-miterlimit="10" d="M192.4,170.4c-2.4,1.3-5.7,2.3-9.1,2.3
			c-4.1,0-7.7-1-10.2-2.7"/>
		<path opacity="0.39" fill="none" stroke="#0B4361" stroke-width="3.3781" stroke-miterlimit="10" d="M159.3,136.6
			c-2.7,1.3-6.5,2.2-10.3,2.2c-4.6,0-8.8-1-11.6-2.6"/>
		<path opacity="0.39" fill="none" stroke="#0B4361" stroke-width="3.3781" stroke-miterlimit="10" d="M171.3,209.8
			c2.7-1.3,6.5-2.2,10.3-2.2c4.6,0,8.8,1,11.6,2.6"/>
		<path opacity="0.39" fill="none" stroke="#0B4361" stroke-width="3.3781" stroke-miterlimit="10" d="M227.1,136.6
			c-2.7,1.3-6.5,2.2-10.3,2.2c-4.6,0-8.8-1-11.6-2.6"/>
		<g>
			<path fill="#0B4361" d="M203.9,186.9c0,0-0.5,0.4-1.4,1.2c-0.9,0.7-2.3,1.8-4,2.9c-1.7,1.1-3.8,2.3-6.3,3.3
				c-1.2,0.5-2.5,1-3.8,1.3c-1.3,0.4-2.7,0.6-4.2,0.8l-1,0.1l-1.1,0.1c-0.7,0.1-1.4,0-2.1,0c-1.4,0-2.7-0.1-4.1-0.3
				c-1.3-0.2-2.6-0.4-3.7-0.7c-1.2-0.3-2.3-0.6-3.3-0.9c-2-0.7-3.6-1.4-4.8-1.9c-0.6-0.3-1-0.5-1.3-0.7c-0.3-0.2-0.5-0.3-0.5-0.3
				l2.8-4.7c0,0,0.1,0.1,0.4,0.2c0.2,0.1,0.6,0.4,1,0.6c0.9,0.5,2.3,1.2,4,1.8c0.9,0.3,1.8,0.6,2.8,0.9c1,0.3,2.1,0.6,3.2,0.8
				c1.1,0.2,2.3,0.4,3.5,0.4c0.6,0,1.2,0.1,1.8,0.1l0.9,0l1-0.1c1.2-0.1,2.4-0.2,3.6-0.5c1.2-0.2,2.3-0.6,3.4-1
				c2.2-0.8,4.2-1.8,5.8-2.7c1.6-0.9,3-1.8,3.9-2.5c0.5-0.3,0.8-0.6,1.1-0.8c0.2-0.2,0.4-0.3,0.4-0.3L203.9,186.9z"/>
		</g>
		<path fill="none" stroke="#0A4261" stroke-width="3.9499" stroke-miterlimit="10" d="M238,119.4c-12.5-16.2-32.7-7.9-36.6-7.2"/>
		<path fill="none" stroke="#0A4261" stroke-width="3.9499" stroke-miterlimit="10" d="M162.3,119.4c-12.5-16.2-32.7-7.9-36.6-7.2"
			/>
		<path opacity="0.39" fill="none" stroke="#0B4361" stroke-width="2.8101" stroke-miterlimit="10" d="M169.7,170.2
			c-2.7,0-4.9-2.2-4.9-4.9s2.2-4.9,4.9-4.9"/>
		<path opacity="0.39" fill="none" stroke="#0B4361" stroke-width="2.8101" stroke-miterlimit="10" d="M196,160.5
			c2.7,0,4.9,2.2,4.9,4.9s-2.2,4.9-4.9,4.9"/>
		<g>
			<path opacity="0.15" fill="#0B4361" d="M247.7,76.1c0,0-4.1,5.8-9.7,5.1c-1.2-0.1,0,0.9-1.1,1.5c-0.6,0.3-5.9-9.1-6.5-8.8
				c-1.2,0.7-3-2.1-4.2-1.5c-0.4,0.2-10.9,0.8-11.2,1c2.3,3.5,14.9,19.5,16.2,23.8c1.9,6.1,4.4,16.9,4.5,21.9l12.2,1.2l0.2,1.4
				c0,6.2,0,14.4,0,16.6c0,3.4-3.3,6.2-7.3,6.2h-7.3c0,12.8-2.6,25.2-3,27.2c-4.5,22.3-11.3,50.9-55.1,54.7
				c-9.5-2.1-21-7.5-27.5-11.8v20.1c8.3,5.5,22.7,14.5,32.8,14.5c9.3,0,29.2-5.4,37.1-10.6l-0.4-21.7c-1.2,0.8,3.8-4.4,1.8-3.3
				c14.9-11.5,24.4-28.2,24.4-42.5c0-2.8,4.4-8.4,4.4-14.4h7.3c4,0,7.3-13.5,7.3-16.9v-18.5c0-3.1-2.8-5.7-6.3-6.1v-0.2l0.7,0.1
				c0,0,0.3-1.1,0.7-2.9c-0.3-4.7,1.4-7.4,0.9-11.2c-0.8-6.7-0.7-12.8-1.2-19.5c-0.3-3.4-2.5-10-3.2-13.2L247.7,76.1z M182.7,227.3
				c-0.2,0-0.4,0-0.6,0c1.1,0,2.1-0.1,3.1-0.2C184.3,227.2,183.5,227.3,182.7,227.3z"/>
			<path opacity="0.15" fill="#0B4361" d="M248.2,123c0,0,0-0.4,0-1l0,0.1V123z"/>
		</g>
		<g>
			<path fill="none" stroke="#0B4361" stroke-width="4" stroke-linecap="round" stroke-miterlimit="10" d="M109.2,287.8"/>
			<polyline fill="none" points="148,258.8 187,277.3 224.6,258.8 			"/>
			<path fill="none" stroke="#0B4361" stroke-width="4" stroke-linecap="round" stroke-miterlimit="10" d="M262.7,287.8"/>
		</g>
		<path fill="none" stroke="#48626F" stroke-width="5.913" stroke-linecap="round" stroke-miterlimit="10" d="M185.9,210.2"/>
		
			<path fill="none" stroke="#48626F" stroke-width="5.913" stroke-linecap="round" stroke-linejoin="round" stroke-miterlimit="10" d="
			M185.9,203.8"/>
		<path fill="none" stroke="#0B4361" stroke-width="4" stroke-linecap="round" stroke-miterlimit="10" d="M116.4,127.6v-12.3
			c0,0-3.3,0-7.3,0c-4,0-7.3,2.8-7.3,6.2c0,3.4,0,15.1,0,18.5c0,3.4,3.3,16.9,7.3,16.9c4,0,7.3,0,7.3,0"/>
		<path fill="none" stroke="#0B4361" stroke-width="4" stroke-linecap="round" stroke-miterlimit="10" d="M247.4,127.6v-12.3
			c0,0,3.3,0,7.3,0c4,0,7.3,2.8,7.3,6.2c0,3.4,0,15.1,0,18.5c0,3.4-3.3,16.9-7.3,16.9c-4,0-7.3,0-7.3,0"/>
		<path fill="none" stroke="#0B4361" stroke-width="4" stroke-linecap="round" stroke-miterlimit="10" d="M246.5,148.1
			c-3.1,51.3-33.5,79.6-64,79.9c-31,0.3-62-28.3-64.8-79.9"/>
		<g>
			
				<line fill="none" stroke="#0B4361" stroke-width="4.2549" stroke-linecap="round" stroke-miterlimit="10" x1="190.2" y1="125.5" x2="175.6" y2="125.5"/>
			<path fill="none" stroke="#0B4361" stroke-width="4.2549" stroke-linecap="round" stroke-miterlimit="10" d="M167.3,119.3
				c-4,0-38.7,0-42.7,0c-4,0-7.3,2.8-7.3,6.2c0,3.4,0,8.9,0,12.3c0,3.4,3.3,6.2,7.3,6.2c4,0,38.7,0,42.7,0c4,0,7.3-2.8,7.3-6.2
				c0-3.4,0-8.9,0-12.3C174.6,122.1,171.4,119.3,167.3,119.3z"/>
			<path fill="none" stroke="#0B4361" stroke-width="4.2549" stroke-linecap="round" stroke-miterlimit="10" d="M240.2,119.3
				c-4,0-38.7,0-42.7,0c-4,0-7.3,2.8-7.3,6.2c0,3.4,0,8.9,0,12.3c0,3.4,3.3,6.2,7.3,6.2c4,0,38.7,0,42.7,0c4,0,7.3-2.8,7.3-6.2
				c0-3.4,0-8.9,0-12.3C247.4,122.1,244.2,119.3,240.2,119.3z"/>
		</g>
		
			<path fill="none" stroke="#0B4361" stroke-width="4.2533" stroke-linecap="round" stroke-linejoin="round" stroke-miterlimit="10" d="
			M255.7,114"/>
		<path fill="#918783" stroke="#0B4361" stroke-width="3.5377" stroke-miterlimit="10" d="M154.5,42.7c11.3-10.9,28.5-24.4,43-30.5
			l-1,12"/>
		<path fill="#918783" stroke="#0B4361" stroke-width="4" stroke-miterlimit="10" d="M172,36.1c12.5-9.4,32.3-17.2,47.4-21.4
			l-2,10.2c8.9,4.7,16.6,10.8,22.1,19.2c2.7,4,7,6.6,9.4,11c5,9.2,7.5,19,8.7,29.2c1.2,10.4-0.8,20.7-2.2,31.1
			c-3.2,0-4.5-0.1-7.8-0.1c-1.1-15.9-7-29.9-18.5-41.9c-6-6.3-34.4,5.3-45.2,5.3c-6.7,0-45.1-9.2-47.1-7.2
			c-11.2,10.6-18.1,23.4-20,38.6c-0.1,1.1-0.3,2.3-0.4,3.4c-3.3,0-4.2,0-7.5,0c-1.6-13.2-4.1-26.4-1-39.5
			c1.8-7.5,5.2-14.2,11.3-19.5c3.3-2.8,4.2-7.2,6.6-10.7l8.4-12.7c3.1,2.1,7.7,5.7,10.1,2.8c3.4-4.1,7.7-7.2,12-10.3
			c1.8-1.3,6.6-4.3,6.6-4.3s6,10.3,7.5,11.9"/>
		<path fill="none" stroke="#0B4361" stroke-width="4" stroke-miterlimit="10" d="M151.4,72.6c13.3-10.3,31.2-18.6,47.3-23.5"/>
		<path fill="none" stroke="#0B4361" stroke-width="4" stroke-miterlimit="10" d="M173.4,77.6c13-9.8,29.2-18,45-21.8"/>
		<path fill="none" stroke="#0B4361" stroke-width="4" stroke-miterlimit="10" d="M137.1,70.9c-3.6-3.3-7-6.8-10-10.6"/>
		<g>
			<g>
				<polygon opacity="0.15" fill="#0B4361" points="299.9,292.9 297,328.5 312.2,328.5 				"/>
				<polygon opacity="0.15" fill="#0B4361" stroke="#0B4361" stroke-miterlimit="10" points="66.2,328.5 81.4,328.5 69,292.9 				
					"/>
			</g>
			<path fill="none" stroke="#0B4361" stroke-width="4" stroke-miterlimit="10" d="M242.8,242.5l67.3,20.9
				c13.6,4.7,31.7,14.1,31.7,27.1c0,9.7-2.6,37.8-2.6,37.8H26.9c0,0-2.8-29.6,0-38.9c4.2-13.9,18-21.3,31.6-26l63.5-21.2"/>
			<path fill="none" stroke="#0B4361" stroke-width="5.6202" stroke-linecap="round" stroke-miterlimit="10" d="M135.5,303.8"/>
			<path fill="none" stroke="#0B4361" stroke-width="5.6202" stroke-linecap="round" stroke-miterlimit="10" d="M230.5,290.8"/>
			<path fill="none" stroke="#0B4361" stroke-width="4" stroke-linecap="round" stroke-miterlimit="10" d="M217,220.9v26.9
				c0,2.5-1.2,4.9-3.3,6.5l-25.2,19.3c-3.2,2.4-7.7,2.4-10.9,0l-25.2-19.3c-2.1-1.6-3.3-4-3.3-6.5v-29.6"/>
			<path fill="none" stroke="#0B4361" stroke-width="4" stroke-linecap="round" stroke-miterlimit="10" d="M167.8,268.5l-18.2,7.7
				c-5,2.1-10.8-0.1-13-5.1l-14.6-32.2c0-7.2,6.1-13,13.6-13l13.6,3.9"/>
			<path fill="none" stroke="#0B4361" stroke-width="4" stroke-linecap="round" stroke-miterlimit="10" d="M197.8,268.5l18.3,7.7
				c5,2.1,10.7-0.1,13-5l15.1-32.3c0-7.2-6.1-13-13.6-13l-13.6,3.9"/>
			<line fill="none" stroke="#0B4361" stroke-width="4.2152" stroke-miterlimit="10" x1="67.1" y1="329" x2="67.1" y2="291.4"/>
			<line fill="none" stroke="#0B4361" stroke-width="4.2152" stroke-miterlimit="10" x1="297.9" y1="329" x2="297.9" y2="291.4"/>
		</g>
	</g>
</g>
<g id="Layer_3" display="none">
</g>
</svg>
